<mxfile host="65bd71144e">
    <diagram id="HxbM_7kRyC9p0_eErCoi" name="PÃ¡gina-1">
        <mxGraphModel dx="2443" dy="920" grid="1" gridSize="10" guides="1" tooltips="1" connect="1" arrows="1" fold="1" page="1" pageScale="1" pageWidth="827" pageHeight="1169" math="0" shadow="0">
            <root>
                <mxCell id="0"/>
                <mxCell id="1" parent="0"/>
                <mxCell id="2" value="Cliente" style="swimlane;fontStyle=0;childLayout=stackLayout;horizontal=1;startSize=30;horizontalStack=0;resizeParent=1;resizeParentMax=0;resizeLast=0;collapsible=1;marginBottom=0;" vertex="1" parent="1">
                    <mxGeometry x="-760" y="170" width="280" height="110" as="geometry"/>
                </mxCell>
                <mxCell id="12" value="&lt;div style=&quot;color: rgb(246 , 246 , 244) ; background-color: rgb(40 , 42 , 54) ; font-family: &amp;#34;consolas&amp;#34; , &amp;#34;courier new&amp;#34; , monospace ; line-height: 19px&quot;&gt;&lt;div&gt;idCliente &lt;span style=&quot;color: #f286c4&quot;&gt;int&lt;/span&gt; auto_increment &lt;span style=&quot;color: #f286c4&quot;&gt;primary&lt;/span&gt; &lt;span style=&quot;color: #f286c4&quot;&gt;key&lt;/span&gt;,&lt;/div&gt;&lt;div&gt;&amp;nbsp; &amp;nbsp; Nome &lt;span style=&quot;color: #f286c4&quot;&gt;VARCHAR&lt;/span&gt;(&lt;span style=&quot;color: #bf9eee&quot;&gt;30&lt;/span&gt;),&lt;/div&gt;&lt;div&gt;&amp;nbsp; &amp;nbsp; Endereco &lt;span style=&quot;color: #f286c4&quot;&gt;VARCHAR&lt;/span&gt;(&lt;span style=&quot;color: #bf9eee&quot;&gt;35&lt;/span&gt;),&lt;/div&gt;&lt;div&gt;&amp;nbsp; &amp;nbsp; Contato &lt;span style=&quot;color: #f286c4&quot;&gt;VARCHAR&lt;/span&gt;(&lt;span style=&quot;color: #bf9eee&quot;&gt;15&lt;/span&gt;)&lt;/div&gt;&lt;/div&gt;" style="text;html=1;align=left;verticalAlign=middle;resizable=0;points=[];autosize=1;strokeColor=none;fillColor=none;" vertex="1" parent="2">
                    <mxGeometry y="30" width="280" height="80" as="geometry"/>
                </mxCell>
                <mxCell id="6" value="Veiculo" style="swimlane;fontStyle=0;childLayout=stackLayout;horizontal=1;startSize=30;horizontalStack=0;resizeParent=1;resizeParentMax=0;resizeLast=0;collapsible=1;marginBottom=0;" vertex="1" parent="1">
                    <mxGeometry x="-160" y="170" width="280" height="110" as="geometry"/>
                </mxCell>
                <mxCell id="13" value="&lt;div style=&quot;color: rgb(246 , 246 , 244) ; background-color: rgb(40 , 42 , 54) ; font-family: &amp;#34;consolas&amp;#34; , &amp;#34;courier new&amp;#34; , monospace ; line-height: 19px&quot;&gt;&lt;div&gt;idVeiculo &lt;span style=&quot;color: #f286c4&quot;&gt;int&lt;/span&gt; auto_increment &lt;span style=&quot;color: #f286c4&quot;&gt;primary&lt;/span&gt; &lt;span style=&quot;color: #f286c4&quot;&gt;key&lt;/span&gt;,&lt;/div&gt;&lt;div&gt;&amp;nbsp; &amp;nbsp; Placa &lt;span style=&quot;color: #f286c4&quot;&gt;VARCHAR&lt;/span&gt;(&lt;span style=&quot;color: #bf9eee&quot;&gt;10&lt;/span&gt;),&lt;/div&gt;&lt;div&gt;&amp;nbsp; &amp;nbsp; Modelo &lt;span style=&quot;color: #f286c4&quot;&gt;VARCHAR&lt;/span&gt;(&lt;span style=&quot;color: #bf9eee&quot;&gt;15&lt;/span&gt;),&lt;/div&gt;&lt;div&gt;&amp;nbsp; &amp;nbsp; Ano &lt;span style=&quot;color: #f286c4&quot;&gt;char&lt;/span&gt;(&lt;span style=&quot;color: #bf9eee&quot;&gt;5&lt;/span&gt;)&lt;/div&gt;&lt;/div&gt;" style="text;html=1;align=left;verticalAlign=middle;resizable=0;points=[];autosize=1;strokeColor=none;fillColor=none;fontSize=12;" vertex="1" parent="6">
                    <mxGeometry y="30" width="280" height="80" as="geometry"/>
                </mxCell>
                <mxCell id="7" value="Mecanico" style="swimlane;fontStyle=0;childLayout=stackLayout;horizontal=1;startSize=30;horizontalStack=0;resizeParent=1;resizeParentMax=0;resizeLast=0;collapsible=1;marginBottom=0;" vertex="1" parent="1">
                    <mxGeometry x="460" y="170" width="280" height="130" as="geometry"/>
                </mxCell>
                <mxCell id="14" value="&lt;div style=&quot;color: rgb(246 , 246 , 244) ; background-color: rgb(40 , 42 , 54) ; font-family: &amp;#34;consolas&amp;#34; , &amp;#34;courier new&amp;#34; , monospace ; line-height: 19px&quot;&gt;&lt;div&gt;idMecanio &lt;span style=&quot;color: #f286c4&quot;&gt;int&lt;/span&gt; auto_increment &lt;span style=&quot;color: #f286c4&quot;&gt;primary&lt;/span&gt; &lt;span style=&quot;color: #f286c4&quot;&gt;key&lt;/span&gt;,&lt;/div&gt;&lt;div&gt;&amp;nbsp; &amp;nbsp; Codigo &lt;span style=&quot;color: #f286c4&quot;&gt;VARCHAR&lt;/span&gt;(&lt;span style=&quot;color: #bf9eee&quot;&gt;20&lt;/span&gt;),&lt;/div&gt;&lt;div&gt;&amp;nbsp; &amp;nbsp; Nome &lt;span style=&quot;color: #f286c4&quot;&gt;VARCHAR&lt;/span&gt;(&lt;span style=&quot;color: #bf9eee&quot;&gt;35&lt;/span&gt;),&lt;/div&gt;&lt;div&gt;&amp;nbsp; &amp;nbsp; Endereco &lt;span style=&quot;color: #f286c4&quot;&gt;VARCHAR&lt;/span&gt;(&lt;span style=&quot;color: #bf9eee&quot;&gt;45&lt;/span&gt;),&lt;/div&gt;&lt;div&gt;&amp;nbsp; &amp;nbsp; Especialidade &lt;span style=&quot;color: #f286c4&quot;&gt;VARCHAR&lt;/span&gt;(&lt;span style=&quot;color: #bf9eee&quot;&gt;20&lt;/span&gt;)&lt;/div&gt;&lt;/div&gt;" style="text;html=1;align=left;verticalAlign=middle;resizable=0;points=[];autosize=1;strokeColor=none;fillColor=none;fontSize=12;" vertex="1" parent="7">
                    <mxGeometry y="30" width="280" height="100" as="geometry"/>
                </mxCell>
                <mxCell id="8" value="Ordem_Servico" style="swimlane;fontStyle=0;childLayout=stackLayout;horizontal=1;startSize=30;horizontalStack=0;resizeParent=1;resizeParentMax=0;resizeLast=0;collapsible=1;marginBottom=0;" vertex="1" parent="1">
                    <mxGeometry x="-165" y="510" width="320" height="150" as="geometry"/>
                </mxCell>
                <mxCell id="15" value="&lt;div style=&quot;color: rgb(246 , 246 , 244) ; background-color: rgb(40 , 42 , 54) ; font-family: &amp;#34;consolas&amp;#34; , &amp;#34;courier new&amp;#34; , monospace ; line-height: 19px&quot;&gt;&lt;div&gt;idOrdem_Servico &lt;span style=&quot;color: #f286c4&quot;&gt;int&lt;/span&gt; auto_increment &lt;span style=&quot;color: #f286c4&quot;&gt;primary&lt;/span&gt; &lt;span style=&quot;color: #f286c4&quot;&gt;key&lt;/span&gt;,&lt;/div&gt;&lt;div&gt;&amp;nbsp; &amp;nbsp; Data_Entrega &lt;span style=&quot;color: #f286c4&quot;&gt;DATE&lt;/span&gt;,&lt;/div&gt;&lt;div&gt;&amp;nbsp; &amp;nbsp; Numero &lt;span style=&quot;color: #f286c4&quot;&gt;VARCHAR&lt;/span&gt;(&lt;span style=&quot;color: #bf9eee&quot;&gt;21&lt;/span&gt;),&lt;/div&gt;&lt;div&gt;&amp;nbsp; &amp;nbsp; Data_Emissao &lt;span style=&quot;color: #f286c4&quot;&gt;DATE&lt;/span&gt;,&lt;/div&gt;&lt;div&gt;&amp;nbsp; &amp;nbsp; Valor &lt;span style=&quot;color: #f286c4&quot;&gt;FLOAT&lt;/span&gt;,&lt;/div&gt;&lt;div&gt;&amp;nbsp; &amp;nbsp; &lt;span style=&quot;color: #f286c4&quot;&gt;Status&lt;/span&gt; &lt;span style=&quot;color: #f286c4&quot;&gt;VARCHAR&lt;/span&gt;(&lt;span style=&quot;color: #bf9eee&quot;&gt;15&lt;/span&gt;)&lt;/div&gt;&lt;/div&gt;" style="text;html=1;align=left;verticalAlign=middle;resizable=0;points=[];autosize=1;strokeColor=none;fillColor=none;fontSize=12;" vertex="1" parent="8">
                    <mxGeometry y="30" width="320" height="120" as="geometry"/>
                </mxCell>
                <mxCell id="9" value="Tabela_referencia" style="swimlane;fontStyle=0;childLayout=stackLayout;horizontal=1;startSize=30;horizontalStack=0;resizeParent=1;resizeParentMax=0;resizeLast=0;collapsible=1;marginBottom=0;" vertex="1" parent="1">
                    <mxGeometry x="-170" y="880" width="340" height="110" as="geometry"/>
                </mxCell>
                <mxCell id="16" value="&lt;div style=&quot;color: rgb(246 , 246 , 244) ; background-color: rgb(40 , 42 , 54) ; font-family: &amp;#34;consolas&amp;#34; , &amp;#34;courier new&amp;#34; , monospace ; line-height: 19px&quot;&gt;&lt;div&gt;idTabela_Referencia &lt;span style=&quot;color: #f286c4&quot;&gt;int&lt;/span&gt; auto_increment &lt;span style=&quot;color: #f286c4&quot;&gt;primary&lt;/span&gt; &lt;span style=&quot;color: #f286c4&quot;&gt;key&lt;/span&gt;,&lt;/div&gt;&lt;div&gt;&amp;nbsp; &amp;nbsp; Mao_de_Obra &lt;span style=&quot;color: #f286c4&quot;&gt;VARCHAR&lt;/span&gt;(&lt;span style=&quot;color: #bf9eee&quot;&gt;21&lt;/span&gt;),&lt;/div&gt;&lt;div&gt;&amp;nbsp; &amp;nbsp; Valor_Servico &lt;span style=&quot;color: #f286c4&quot;&gt;FLOAT&lt;/span&gt;,&lt;/div&gt;&lt;div&gt;&amp;nbsp; &amp;nbsp; Valor_Peca &lt;span style=&quot;color: #f286c4&quot;&gt;FLOAT&lt;/span&gt; &lt;/div&gt;&lt;/div&gt;" style="text;html=1;align=left;verticalAlign=middle;resizable=0;points=[];autosize=1;strokeColor=none;fillColor=none;fontSize=12;" vertex="1" parent="9">
                    <mxGeometry y="30" width="340" height="80" as="geometry"/>
                </mxCell>
                <mxCell id="10" value="Servicos" style="swimlane;fontStyle=0;childLayout=stackLayout;horizontal=1;startSize=30;horizontalStack=0;resizeParent=1;resizeParentMax=0;resizeLast=0;collapsible=1;marginBottom=0;" vertex="1" parent="1">
                    <mxGeometry x="430" y="880" width="290" height="90" as="geometry"/>
                </mxCell>
                <mxCell id="17" value="&lt;div style=&quot;color: rgb(246 , 246 , 244) ; background-color: rgb(40 , 42 , 54) ; font-family: &amp;#34;consolas&amp;#34; , &amp;#34;courier new&amp;#34; , monospace ; line-height: 19px&quot;&gt;&lt;div&gt;idServicos &lt;span style=&quot;color: #f286c4&quot;&gt;int&lt;/span&gt; auto_increment &lt;span style=&quot;color: #f286c4&quot;&gt;primary&lt;/span&gt; &lt;span style=&quot;color: #f286c4&quot;&gt;key&lt;/span&gt;,&lt;/div&gt;&lt;div&gt;&amp;nbsp; &amp;nbsp; Identificacao &lt;span style=&quot;color: #f286c4&quot;&gt;VARCHAR&lt;/span&gt;(&lt;span style=&quot;color: #bf9eee&quot;&gt;45&lt;/span&gt;),&lt;/div&gt;&lt;div&gt;&amp;nbsp; &amp;nbsp; Valor &lt;span style=&quot;color: #f286c4&quot;&gt;FLOAT&lt;/span&gt; &lt;/div&gt;&lt;/div&gt;" style="text;html=1;align=left;verticalAlign=middle;resizable=0;points=[];autosize=1;strokeColor=none;fillColor=none;fontSize=12;" vertex="1" parent="10">
                    <mxGeometry y="30" width="290" height="60" as="geometry"/>
                </mxCell>
                <mxCell id="11" value="Pecas" style="swimlane;fontStyle=0;childLayout=stackLayout;horizontal=1;startSize=30;horizontalStack=0;resizeParent=1;resizeParentMax=0;resizeLast=0;collapsible=1;marginBottom=0;" vertex="1" parent="1">
                    <mxGeometry x="-705" y="870" width="400" height="150" as="geometry"/>
                </mxCell>
                <mxCell id="18" value="&lt;div style=&quot;color: rgb(246 , 246 , 244) ; background-color: rgb(40 , 42 , 54) ; font-family: &amp;#34;consolas&amp;#34; , &amp;#34;courier new&amp;#34; , monospace ; line-height: 19px&quot;&gt;&lt;div&gt;idPecas &lt;span style=&quot;color: #f286c4&quot;&gt;int&lt;/span&gt; auto_increment &lt;span style=&quot;color: #f286c4&quot;&gt;primary&lt;/span&gt; &lt;span style=&quot;color: #f286c4&quot;&gt;key&lt;/span&gt;,&lt;/div&gt;&lt;div&gt;&amp;nbsp; &amp;nbsp; Quantidade &lt;span style=&quot;color: #f286c4&quot;&gt;INT&lt;/span&gt;,&lt;/div&gt;&lt;div&gt;&amp;nbsp; &amp;nbsp; Identificacao &lt;span style=&quot;color: #f286c4&quot;&gt;VARCHAR&lt;/span&gt;(&lt;span style=&quot;color: #bf9eee&quot;&gt;45&lt;/span&gt;),&lt;/div&gt;&lt;div&gt;&amp;nbsp; &amp;nbsp; Valor &lt;span style=&quot;color: #f286c4&quot;&gt;FLOAT&lt;/span&gt;,&lt;/div&gt;&lt;div&gt;&amp;nbsp; &amp;nbsp; &lt;span style=&quot;color: #f286c4&quot;&gt;constraint&lt;/span&gt; fk_Pecas_idPecas &lt;span style=&quot;color: #f286c4&quot;&gt;foreign key&lt;/span&gt;&amp;nbsp;&lt;/div&gt;&lt;div&gt;&lt;span style=&quot;white-space: pre&quot;&gt;&#9;&lt;/span&gt;(idPecas) &lt;span style=&quot;color: #f286c4&quot;&gt;references&lt;/span&gt; Ordem_Servico(idOrdem_Servico) &lt;/div&gt;&lt;/div&gt;" style="text;html=1;align=left;verticalAlign=middle;resizable=0;points=[];autosize=1;strokeColor=none;fillColor=none;fontSize=12;" vertex="1" parent="11">
                    <mxGeometry y="30" width="400" height="120" as="geometry"/>
                </mxCell>
                <mxCell id="19" value="" style="shape=sortShape;perimeter=rhombusPerimeter;whiteSpace=wrap;html=1;fontSize=12;" vertex="1" parent="1">
                    <mxGeometry x="-340" y="200" width="50" height="50" as="geometry"/>
                </mxCell>
                <mxCell id="20" value="" style="shape=sortShape;perimeter=rhombusPerimeter;whiteSpace=wrap;html=1;fontSize=12;" vertex="1" parent="1">
                    <mxGeometry x="-530" y="575" width="50" height="50" as="geometry"/>
                </mxCell>
                <mxCell id="21" value="" style="shape=sortShape;perimeter=rhombusPerimeter;whiteSpace=wrap;html=1;fontSize=12;" vertex="1" parent="1">
                    <mxGeometry x="550" y="575" width="50" height="50" as="geometry"/>
                </mxCell>
                <mxCell id="22" value="" style="rhombus;whiteSpace=wrap;html=1;fontSize=12;" vertex="1" parent="1">
                    <mxGeometry x="-30" y="730" width="50" height="50" as="geometry"/>
                </mxCell>
                <mxCell id="24" value="" style="rhombus;whiteSpace=wrap;html=1;fontSize=12;" vertex="1" parent="1">
                    <mxGeometry x="270" y="200" width="50" height="50" as="geometry"/>
                </mxCell>
                <mxCell id="25" value="" style="rhombus;whiteSpace=wrap;html=1;fontSize=12;" vertex="1" parent="1">
                    <mxGeometry x="270" y="390" width="50" height="50" as="geometry"/>
                </mxCell>
                <mxCell id="27" value="" style="endArrow=none;html=1;fontSize=12;exitX=1;exitY=0.313;exitDx=0;exitDy=0;exitPerimeter=0;entryX=0;entryY=0.5;entryDx=0;entryDy=0;" edge="1" parent="1" source="12" target="19">
                    <mxGeometry width="50" height="50" relative="1" as="geometry">
                        <mxPoint x="-230" y="310" as="sourcePoint"/>
                        <mxPoint x="-180" y="260" as="targetPoint"/>
                    </mxGeometry>
                </mxCell>
                <mxCell id="28" value="" style="endArrow=none;html=1;fontSize=12;exitX=1;exitY=0.5;exitDx=0;exitDy=0;entryX=-0.007;entryY=0.325;entryDx=0;entryDy=0;entryPerimeter=0;" edge="1" parent="1" source="19" target="13">
                    <mxGeometry width="50" height="50" relative="1" as="geometry">
                        <mxPoint x="-220" y="320" as="sourcePoint"/>
                        <mxPoint x="-170" y="270" as="targetPoint"/>
                    </mxGeometry>
                </mxCell>
                <mxCell id="29" value="" style="endArrow=none;html=1;fontSize=12;exitX=0;exitY=0.5;exitDx=0;exitDy=0;" edge="1" parent="1" source="24">
                    <mxGeometry width="50" height="50" relative="1" as="geometry">
                        <mxPoint x="-210" y="330" as="sourcePoint"/>
                        <mxPoint x="120" y="225" as="targetPoint"/>
                    </mxGeometry>
                </mxCell>
                <mxCell id="30" value="" style="endArrow=none;html=1;fontSize=12;entryX=1;entryY=0.5;entryDx=0;entryDy=0;" edge="1" parent="1" target="24">
                    <mxGeometry width="50" height="50" relative="1" as="geometry">
                        <mxPoint x="460" y="225" as="sourcePoint"/>
                        <mxPoint x="-150" y="290" as="targetPoint"/>
                    </mxGeometry>
                </mxCell>
                <mxCell id="32" value="" style="endArrow=none;html=1;fontSize=12;entryX=0.475;entryY=1.04;entryDx=0;entryDy=0;entryPerimeter=0;exitX=1;exitY=0.5;exitDx=0;exitDy=0;" edge="1" parent="1" source="25" target="14">
                    <mxGeometry width="50" height="50" relative="1" as="geometry">
                        <mxPoint x="570" y="570" as="sourcePoint"/>
                        <mxPoint x="620" y="520" as="targetPoint"/>
                        <Array as="points">
                            <mxPoint x="593" y="415"/>
                        </Array>
                    </mxGeometry>
                </mxCell>
                <mxCell id="34" value="" style="endArrow=none;html=1;fontSize=12;entryX=0;entryY=0.5;entryDx=0;entryDy=0;exitX=0.5;exitY=0;exitDx=0;exitDy=0;" edge="1" parent="1" source="8" target="25">
                    <mxGeometry width="50" height="50" relative="1" as="geometry">
                        <mxPoint x="-190" y="350" as="sourcePoint"/>
                        <mxPoint x="-140" y="300" as="targetPoint"/>
                        <Array as="points">
                            <mxPoint x="-5" y="415"/>
                        </Array>
                    </mxGeometry>
                </mxCell>
                <mxCell id="35" value="" style="endArrow=none;html=1;fontSize=12;entryX=0;entryY=0.5;entryDx=0;entryDy=0;" edge="1" parent="1" target="21">
                    <mxGeometry width="50" height="50" relative="1" as="geometry">
                        <mxPoint x="160" y="600" as="sourcePoint"/>
                        <mxPoint x="-130" y="310" as="targetPoint"/>
                    </mxGeometry>
                </mxCell>
                <mxCell id="36" value="" style="endArrow=none;html=1;fontSize=12;entryX=0.5;entryY=1;entryDx=0;entryDy=0;exitX=0.5;exitY=0;exitDx=0;exitDy=0;" edge="1" parent="1" source="10" target="21">
                    <mxGeometry width="50" height="50" relative="1" as="geometry">
                        <mxPoint x="-170" y="370" as="sourcePoint"/>
                        <mxPoint x="-120" y="320" as="targetPoint"/>
                    </mxGeometry>
                </mxCell>
                <mxCell id="37" value="" style="endArrow=none;html=1;fontSize=12;exitX=0.501;exitY=1.011;exitDx=0;exitDy=0;exitPerimeter=0;entryX=0.5;entryY=0;entryDx=0;entryDy=0;" edge="1" parent="1" source="15" target="22">
                    <mxGeometry width="50" height="50" relative="1" as="geometry">
                        <mxPoint x="-160" y="380" as="sourcePoint"/>
                        <mxPoint x="-110" y="330" as="targetPoint"/>
                    </mxGeometry>
                </mxCell>
                <mxCell id="38" value="" style="endArrow=none;html=1;fontSize=12;entryX=0.5;entryY=1;entryDx=0;entryDy=0;exitX=0.482;exitY=-0.023;exitDx=0;exitDy=0;exitPerimeter=0;" edge="1" parent="1" source="9" target="22">
                    <mxGeometry width="50" height="50" relative="1" as="geometry">
                        <mxPoint x="155" y="810" as="sourcePoint"/>
                        <mxPoint x="205" y="760" as="targetPoint"/>
                    </mxGeometry>
                </mxCell>
                <mxCell id="39" value="" style="endArrow=none;html=1;fontSize=12;exitX=1;exitY=0.5;exitDx=0;exitDy=0;" edge="1" parent="1" source="20">
                    <mxGeometry width="50" height="50" relative="1" as="geometry">
                        <mxPoint x="-460" y="610" as="sourcePoint"/>
                        <mxPoint x="-170" y="600" as="targetPoint"/>
                    </mxGeometry>
                </mxCell>
                <mxCell id="41" value="" style="endArrow=none;html=1;fontSize=12;exitX=0.5;exitY=1;exitDx=0;exitDy=0;entryX=0.5;entryY=0;entryDx=0;entryDy=0;" edge="1" parent="1" source="20" target="11">
                    <mxGeometry width="50" height="50" relative="1" as="geometry">
                        <mxPoint x="-130" y="410" as="sourcePoint"/>
                        <mxPoint x="-80" y="360" as="targetPoint"/>
                    </mxGeometry>
                </mxCell>
                <mxCell id="42" value="&lt;font style=&quot;font-size: 16px&quot;&gt;1&lt;/font&gt;" style="text;html=1;strokeColor=none;fillColor=none;align=center;verticalAlign=middle;whiteSpace=wrap;rounded=0;fontSize=12;" vertex="1" parent="1">
                    <mxGeometry x="-480" y="200" width="60" height="30" as="geometry"/>
                </mxCell>
                <mxCell id="44" value="&lt;font style=&quot;font-size: 16px&quot;&gt;1&lt;/font&gt;" style="text;html=1;strokeColor=none;fillColor=none;align=center;verticalAlign=middle;whiteSpace=wrap;rounded=0;fontSize=12;" vertex="1" parent="1">
                    <mxGeometry x="120" y="200" width="60" height="30" as="geometry"/>
                </mxCell>
                <mxCell id="45" value="&lt;font style=&quot;font-size: 16px&quot;&gt;1&lt;/font&gt;" style="text;html=1;strokeColor=none;fillColor=none;align=center;verticalAlign=middle;whiteSpace=wrap;rounded=0;fontSize=12;" vertex="1" parent="1">
                    <mxGeometry x="400" y="200" width="60" height="30" as="geometry"/>
                </mxCell>
                <mxCell id="46" value="&lt;font style=&quot;font-size: 16px&quot;&gt;1&lt;/font&gt;" style="text;html=1;strokeColor=none;fillColor=none;align=center;verticalAlign=middle;whiteSpace=wrap;rounded=0;fontSize=12;" vertex="1" parent="1">
                    <mxGeometry x="-230" y="570" width="60" height="30" as="geometry"/>
                </mxCell>
                <mxCell id="47" value="&lt;font style=&quot;font-size: 16px&quot;&gt;1&lt;/font&gt;" style="text;html=1;strokeColor=none;fillColor=none;align=center;verticalAlign=middle;whiteSpace=wrap;rounded=0;fontSize=12;" vertex="1" parent="1">
                    <mxGeometry x="155" y="570" width="60" height="30" as="geometry"/>
                </mxCell>
                <mxCell id="48" value="&lt;font style=&quot;font-size: 16px&quot;&gt;1&lt;/font&gt;" style="text;html=1;strokeColor=none;fillColor=none;align=center;verticalAlign=middle;whiteSpace=wrap;rounded=0;fontSize=12;" vertex="1" parent="1">
                    <mxGeometry x="545" y="310" width="60" height="30" as="geometry"/>
                </mxCell>
                <mxCell id="49" value="&lt;font style=&quot;font-size: 16px&quot;&gt;1&lt;/font&gt;" style="text;html=1;strokeColor=none;fillColor=none;align=center;verticalAlign=middle;whiteSpace=wrap;rounded=0;fontSize=12;" vertex="1" parent="1">
                    <mxGeometry x="-50" y="470" width="60" height="30" as="geometry"/>
                </mxCell>
                <mxCell id="51" value="&lt;font style=&quot;font-size: 16px&quot;&gt;1&lt;/font&gt;" style="text;html=1;strokeColor=none;fillColor=none;align=center;verticalAlign=middle;whiteSpace=wrap;rounded=0;fontSize=12;" vertex="1" parent="1">
                    <mxGeometry x="-50" y="660" width="60" height="30" as="geometry"/>
                </mxCell>
                <mxCell id="52" value="&lt;font style=&quot;font-size: 16px&quot;&gt;1&lt;/font&gt;" style="text;html=1;strokeColor=none;fillColor=none;align=center;verticalAlign=middle;whiteSpace=wrap;rounded=0;fontSize=12;" vertex="1" parent="1">
                    <mxGeometry x="-50" y="830" width="60" height="30" as="geometry"/>
                </mxCell>
                <mxCell id="53" value="&lt;font style=&quot;font-size: 16px&quot;&gt;1 .. *&lt;br&gt;&lt;/font&gt;" style="text;html=1;strokeColor=none;fillColor=none;align=center;verticalAlign=middle;whiteSpace=wrap;rounded=0;fontSize=12;" vertex="1" parent="1">
                    <mxGeometry x="-570" y="820" width="60" height="30" as="geometry"/>
                </mxCell>
                <mxCell id="54" value="&lt;font style=&quot;font-size: 16px&quot;&gt;1 .. *&lt;br&gt;&lt;/font&gt;" style="text;html=1;strokeColor=none;fillColor=none;align=center;verticalAlign=middle;whiteSpace=wrap;rounded=0;fontSize=12;" vertex="1" parent="1">
                    <mxGeometry x="510" y="830" width="60" height="30" as="geometry"/>
                </mxCell>
                <mxCell id="55" value="&lt;font style=&quot;font-size: 16px&quot;&gt;1 .. *&lt;br&gt;&lt;/font&gt;" style="text;html=1;strokeColor=none;fillColor=none;align=center;verticalAlign=middle;whiteSpace=wrap;rounded=0;fontSize=12;" vertex="1" parent="1">
                    <mxGeometry x="-225" y="200" width="60" height="30" as="geometry"/>
                </mxCell>
                <mxCell id="56" value="&lt;span style=&quot;color: rgb(240 , 240 , 240) ; font-family: &amp;#34;helvetica&amp;#34; ; font-size: 24px ; font-style: normal ; font-weight: 700 ; letter-spacing: normal ; text-align: center ; text-indent: 0px ; text-transform: none ; word-spacing: 0px ; background-color: rgb(42 , 42 , 42) ; display: inline ; float: none&quot;&gt;Modelagem de um Oficina&lt;/span&gt;" style="text;html=1;strokeColor=none;fillColor=none;align=center;verticalAlign=middle;whiteSpace=wrap;rounded=0;fontSize=16;" vertex="1" parent="1">
                    <mxGeometry x="-345" y="30" width="690" height="30" as="geometry"/>
                </mxCell>
            </root>
        </mxGraphModel>
    </diagram>
</mxfile>